# xmcd
#
# Track frame offsets: 
#        150
#        34617
#        66743
#        97544
#        130436
#        159128
#        188427
#        217193
#        248501
#        294852
#        329140
#
# Disc length: 4767 seconds
#
# Revision: 1
# Processed by: cddbd v1.5.2PL0 Copyright (c) Steve Scherf et al.
# Submitted via: ExactAudioCopy v1.3
#
DISCID=97129d0b
DTITLE=Various Artist - Akella Presents - vol. 155 - Long Time Blues 
DTITLE=CD2
DYEAR=2018
DGENRE=Blues
TTITLE0=Buck 69 - I'm a King Bee
TTITLE1=The Associates - The Rag and Bone
TTITLE2=Jorge Salans - The Sky Is Crying
TTITLE3=Van Galen Band - The Fool
TTITLE4=Mark Cole - Let Me Down
TTITLE5=Leo Maier - I Choose the Blues
TTITLE6=Lubos Andrst and Ramblin Rex - I've Got My Mojo Working
TTITLE7=Jukin' Bone - Today I Sing The Blues
TTITLE8=Black Magic Johnson - Love So Cold
TTITLE9=Robert Lee Coleman - Set You Free
TTITLE10=The Bluesbones - The End
EXTD=
EXTT0=
EXTT1=
EXTT2=
EXTT3=
EXTT4=
EXTT5=
EXTT6=
EXTT7=
EXTT8=
EXTT9=
EXTT10=
PLAYORDER=
